<svg xmlns:dc="http://purl.org/dc/elements/1.1/" xmlns:cc="http://creativecommons.org/ns#" xmlns:rdf="http://www.w3.org/1999/02/22-rdf-syntax-ns#" xmlns:svg="http://www.w3.org/2000/svg" xmlns="http://www.w3.org/2000/svg" xmlns:sodipodi="http://sodipodi.sourceforge.net/DTD/sodipodi-0.dtd" xmlns:inkscape="http://www.inkscape.org/namespaces/inkscape" id="svg868" version="1.1" sodipodi:docname="Cheerleader Megaphone and Pom SVG.svg" inkscape:version="0.92.2 (5c3e80d, 2017-08-06)" viewBox="3.79 2.59 145.1 94.69">
  <sodipodi:namedview pagecolor="#ffffff" bordercolor="#666666" borderopacity="1" objecttolerance="10" gridtolerance="10" guidetolerance="10" inkscape:pageopacity="0" inkscape:pageshadow="2" inkscape:window-width="640" inkscape:window-height="480" id="namedview1415" showgrid="false" inkscape:snap-global="false" inkscape:zoom="0.42495855" inkscape:cx="-102.39249" inkscape:cy="346.48389" inkscape:current-layer="svg868"/>
  <defs id="defs862"/>
  <metadata id="metadata865">
    <rdf:RDF>
      <cc:Work rdf:about="">
        <dc:format>image/svg+xml</dc:format>
        <dc:type rdf:resource="http://purl.org/dc/dcmitype/StillImage"/>
        <dc:title/>
      </cc:Work>
    </rdf:RDF>
  </metadata>
  <g id="g845" transform="matrix(0.71612551,-0.02194489,0.02194489,0.71612551,-0.59308882,-6.8509191)">
    <path inkscape:connector-curvature="0" style="opacity:1;fill:#000080;fill-opacity:1;fill-rule:nonzero;stroke:none;stroke-width:8.81361008;stroke-linecap:round;stroke-linejoin:round;stroke-miterlimit:4;stroke-dasharray:none;stroke-dashoffset:0;stroke-opacity:1;paint-order:fill markers stroke" d="m 77.457824,21.028299 -17.497617,5.471341 0.239262,0.12082 11.567656,5.859306 6.102205,-0.780818 z m 5.688428,0.114815 -0.286198,27.775804 11.955691,-3.008444 8.602675,-20.317344 0.0583,-0.115563 z m -31.831878,6.282923 -7.812601,4.785828 1.347724,0.721911 6.026866,-3.381409 2.14651,5.355771 12.271046,-1.248704 z m 59.284056,3.161538 -0.0632,0.136953 -3.31516,7.24834 7.71077,3.086867 3.71417,-5.412804 z m 71.14207,2.84448 c -0.14795,0.0015 -0.29491,0.01503 -0.4399,0.04204 -1.54052,0.308722 -2.81307,2.11321 -3.73878,5.299863 L 10.669335,102.65489 C 9.5117745,100.10951 8.3748216,98.810172 7.4526031,98.979305 5.258197,99.388952 4.8327352,107.84335 6.5027663,117.86447 c 1.6701483,10.0211 4.8031977,17.81497 6.9982847,17.40945 0.824053,-0.16075 1.431942,-1.49058 1.738784,-3.80465 l 29.484728,0.57408 c -0.01341,0.1042 -0.02762,0.20698 -0.03216,0.31292 l -0.105242,4.06843 c -0.308256,4.77108 3.395855,8.68227 8.305878,8.76795 l 22.041619,0.38346 c 4.909993,0.0857 9.110605,-3.68621 9.418883,-8.45727 l 0.105243,-4.06804 c 0.0059,-0.0787 0.0022,-0.1561 0.0051,-0.23451 l 109.062536,2.12107 c 1.92931,2.73041 3.7364,3.99755 5.30455,3.72022 6.18672,-1.14739 7.27733,-25.62509 2.43649,-54.671738 -4.61385,-27.685087 -12.95102,-49.528171 -19.07891,-50.518891 -0.15069,-0.02432 -0.2999,-0.03609 -0.44785,-0.03493 z m -133.398673,1.093744 -14.147255,9.017839 0.230551,0.09868 6.819601,2.860992 2.229035,-4.501793 11.290543,10.567088 1.354911,-2.199867 z m 30.113913,1.140642 -19.130777,2.053911 0.04886,0.153457 3.95116,8.29181 12.277866,-7.988258 1.7649,12.936175 1.936398,-0.729034 z m 21.78305,0.759428 -0.0409,0.129075 -10.423235,34.648557 6.917269,-2.66813 17.359066,-26.814512 z M 73.933693,40.877758 58.89074,50.75258 56.288813,52.790358 c 6.666491,8.129582 15.995002,14.329797 23.329521,22.073708 z m 44.813127,2.395727 -0.1079,0.159462 -15.05317,22.226047 17.35262,-6.632988 9.12397,-7.071619 z m -74.235395,0.7902 -10.757508,19.562418 12.596993,3.659061 17.198921,-5.475465 z m 46.769588,7.163163 -10.795749,2.960421 0.01516,0.12307 2.454664,19.941758 2.096533,-0.705393 z m -28.024574,14.035176 -7.755811,2.608099 0.32027,0.134324 20.119228,8.44714 0.140451,-0.220619 z m -25.089886,0.794324 -5.931851,11.796282 0.170362,0.02214 29.782662,4.176858 9.942071,-3.741239 z m -4.103721,16.559223 0.03216,0.132452 1.569939,6.530182 14.655674,-5.283359 -0.02689,-0.193232 z m 15.803506,49.526839 29.451036,0.57369 -0.05831,0.91777 c 1.093357,5.46803 0.02527,11.13416 -8.650756,7.76651 L 57.43097,141.16963 c -7.179445,2.27913 -10.438183,-1.99911 -7.627851,-8.04943 z" id="path18496"/>
    <path inkscape:connector-curvature="0" style="color:#000000;font-style:normal;font-variant:normal;font-weight:normal;font-stretch:normal;font-size:medium;line-height:normal;font-family:sans-serif;font-variant-ligatures:normal;font-variant-position:normal;font-variant-caps:normal;font-variant-numeric:normal;font-variant-alternates:normal;font-feature-settings:normal;text-indent:0;text-align:start;text-decoration:none;text-decoration-line:none;text-decoration-style:solid;text-decoration-color:#000000;letter-spacing:normal;word-spacing:normal;text-transform:none;writing-mode:lr-tb;direction:ltr;text-orientation:mixed;dominant-baseline:auto;baseline-shift:baseline;text-anchor:start;white-space:normal;shape-padding:0;clip-rule:nonzero;display:inline;overflow:visible;visibility:visible;opacity:1;isolation:auto;mix-blend-mode:normal;color-interpolation:sRGB;color-interpolation-filters:linearRGB;solid-color:#000000;solid-opacity:1;vector-effect:none;fill:#ececec;fill-opacity:1;fill-rule:evenodd;stroke:none;stroke-width:1.87230229;stroke-linecap:round;stroke-linejoin:round;stroke-miterlimit:4;stroke-dasharray:none;stroke-dashoffset:0;stroke-opacity:1;color-rendering:auto;image-rendering:auto;shape-rendering:auto;text-rendering:auto;enable-background:accumulate" d="m 80.123705,17.344711 c -0.06828,-0.0076 -0.138392,-0.01082 -0.209276,-0.0099 -0.612791,0.0084 -1.127598,0.327179 -1.122485,0.694698 l 0.209284,13.408875 c -0.02813,0.874098 2.178458,0.75481 2.122379,-0.114735 l -0.192545,-12.376012 24.059198,5.944766 -3.81419,10.14024 c -0.27886,0.850922 0.022,3.357855 2.08503,0.139248 l 3.96493,-10.623998 c 0.0899,-0.285451 -0.1442,-0.556199 -0.57261,-0.662105 L 80.322228,17.379802 c -0.06366,-0.01583 -0.130239,-0.02752 -0.198523,-0.03507 z m -2.777468,1.622024 a 0.67214626,0.94850048 82.188528 0 0 -0.184845,-0.0044 0.67214626,0.94850048 82.188528 0 0 -0.343054,0.06281 l -19.291783,6.039214 0.08118,-2.548894 a 0.75293835,0.74625462 0 0 0 -0.676957,-0.766144 0.75293835,0.74625462 0 0 0 -0.468047,0.104911 l -16.329939,9.869762 a 0.75293835,0.74625462 0 0 0 0.0296,1.29049 l 3.2795,1.785298 -14.213202,8.712064 c -0.633244,0.389157 -0.606424,1.119135 0.05077,1.377786 l 8.095891,3.18303 -9.263012,17.789746 c -0.282608,0.541917 0.176428,1.086788 0.902102,1.070807 l 4.419786,-0.09562 -6.429237,12.934396 c -0.241159,0.484455 0.10569,0.980011 0.734348,1.049577 l 3.483912,0.323323 3.012722,10.777513 a 0.75293835,0.74625462 0 0 0 0.995755,0.498751 l 17.5836,-6.697993 A 0.75329343,0.74660655 0 1 0 52.27504,84.329336 l -16.809443,6.403424 -2.638336,-9.438863 25.686061,2.38464 c 1.390698,0.166817 1.904341,-1.501053 0.505797,-1.64234 L 29.435476,79.311054 36.029295,66.04354 c 0.04615,-1.084639 -0.79209,-1.21439 -1.564817,-0.881511 l -3.817655,0.08158 8.566091,-16.448192 0.487343,0.191765 c 1.228812,0.540239 2.400372,-1.039491 1.107189,-1.49292 l -9.02093,-3.548988 17.119875,-10.493232 8.251448,16.717219 c 0.460398,1.042664 2.547525,0.281842 1.994623,-0.727074 L 50.428294,31.765304 c -0.138927,-0.279664 -0.476303,-0.458417 -0.873538,-0.463064 -0.255898,-0.0029 -0.514207,0.06622 -0.726678,0.195969 l -3.915351,2.399837 -2.886206,-1.570633 14.030723,-8.480866 -0.05443,1.6944 -2.189791,0.685636 a 0.67214626,0.94850048 82.188528 0 0 -0.238946,1.206512 L 67.546631,33.5478 a 0.67214626,0.94850048 82.188528 1 0 1.089108,-1.175675 L 56.1719,26.916213 77.430235,20.261095 a 0.67214626,0.94850048 82.188528 0 0 -0.08402,-1.294113 z m 32.855133,8.019995 c -0.0596,-0.0076 -0.12074,-0.01125 -0.18304,-0.01111 -0.4851,0.0022 -0.93768,0.241952 -1.09791,0.582091 l -4.36171,9.271399 c -0.52307,1.01283 1.56951,1.392112 2.00671,0.363715 l 3.80406,-8.085748 10.10662,6.584601 -20.09729,28.950049 c -0.706192,0.958998 1.24763,1.55492 1.88502,0.574945 l 16.27595,-23.446687 14.31074,10.814746 -6.92748,3.825835 c -2.70012,2.350435 -1.45293,2.318516 1.4445,1.094448 l 7.70766,-4.446284 c 0.4307,-0.343225 0.45683,-0.866227 0.058,-1.16869 L 119.97643,40.430087 c -0.10659,-0.08345 -0.2393,-0.141593 -0.3836,-0.176808 l 3.12725,-4.505111 c 0.21391,-0.308235 0.1378,-0.661894 -0.18811,-0.874896 l -11.8549,-7.720466 c -0.13221,-0.08637 -0.29671,-0.143429 -0.4757,-0.166112 z m -28.628053,5.997777 a 0.81795498,1.0716412 79.058905 0 0 -0.209262,-0.01459 0.81795498,1.0716412 79.058905 0 0 -0.141293,0.0073 l -24.471426,2.735329 a 0.81795498,1.0716412 79.058905 0 0 -0.96284,1.158525 l 4.708716,10.606848 a 0.81795498,1.0716412 79.058905 1 0 2.015949,-0.677025 L 58.252749,37.19332 80.183938,34.744436 79.832423,48.916805 a 0.81825922,1.0720397 79.058898 0 0 2.127507,-0.136401 l 0.372635,-15.050286 a 0.81795498,1.0716412 79.058905 0 0 -0.759248,-0.745523 z m 13.40342,14.65784 a 0.81795498,1.0716412 79.058905 0 0 -0.103778,-0.0058 0.81795498,1.0716412 79.058905 0 0 -0.398078,0.05547 l -16.569874,4.764837 a 0.81795498,1.0716412 79.058905 0 0 -0.781621,0.942705 l 2.892945,21.41572 a 0.81795498,1.0716412 79.058905 1 0 2.114232,-0.336646 L 79.332934,53.75231 93.278912,49.742051 86.267645,72.017711 a 0.81795498,1.0716412 79.058905 1 0 2.061135,0.236927 l 7.453497,-23.672186 a 0.81795498,1.0716412 79.058905 0 0 -0.80554,-0.940229 z M 64.805572,62.256289 c -0.06806,-0.0095 -0.137938,-0.01358 -0.209555,-0.01205 -0.217306,0.0051 -0.434077,0.06208 -0.621083,0.16352 L 48.384822,67.36883 c -1.046003,0.378651 -0.982092,1.160427 0.115982,1.418868 l 24.248809,8.998648 c 1.237222,0.481724 2.329399,-1.068505 1.064354,-1.51076 l -21.31763,-8.425852 11.791615,-3.692163 12.953753,11.500775 c 0.900974,0.844023 2.634175,-0.419543 1.627688,-1.186624 L 65.332145,62.478926 c -0.13829,-0.117145 -0.322329,-0.194059 -0.526573,-0.222637 z" id="path18119"/>
  </g>
</svg>